<?xml version="1.0" standalone="no"?>
<!DOCTYPE svg PUBLIC "-//W3C//DTD SVG 20010904//EN"
 "http://www.w3.org/TR/2001/REC-SVG-20010904/DTD/svg10.dtd">
<svg version="1.0" xmlns="http://www.w3.org/2000/svg"
 width="750.000000pt" height="352.000000pt" viewBox="0 0 750.000000 352.000000"
 preserveAspectRatio="xMidYMid meet">

<g transform="translate(0.000000,352.000000) scale(0.100000,-0.100000)"
fill="#000000" stroke="none">
<path d="M350 3511 c-8 -6 -18 -7 -22 -4 -15 8 -58 -26 -58 -47 0 -11 -10 -25
-22 -31 -73 -39 -86 -164 -21 -206 21 -14 24 -22 19 -51 -3 -19 -1 -43 5 -53
19 -37 31 -126 30 -234 -1 -62 5 -136 13 -170 43 -187 42 -165 9 -215 -38 -55
-63 -114 -63 -147 0 -30 25 -79 47 -91 12 -7 16 -25 17 -70 1 -43 6 -66 20
-80 16 -18 17 -31 11 -92 -5 -48 -3 -75 4 -84 9 -11 7 -39 -10 -117 -27 -133
-30 -245 -7 -281 15 -22 15 -34 5 -91 -10 -60 -9 -77 13 -164 29 -114 31 -215
11 -398 -20 -183 -26 -409 -12 -471 22 -95 -10 -124 -137 -124 -59 0 -119 -40
-128 -86 -6 -31 -10 -34 -40 -34 l-34 0 0 -85 0 -85 3750 0 3750 0 0 590 0
590 -57 0 c-40 0 -68 -6 -90 -20 l-33 -20 0 -155 0 -155 -80 0 -80 0 0 55 0
55 -45 0 -45 0 0 135 0 135 -165 0 -165 0 -2 -167 -3 -168 -30 0 -30 0 -3 98
-3 97 -39 0 -40 0 0 -50 0 -50 -44 0 c-41 0 -45 -2 -48 -26 l-3 -26 -162 1
-162 2 -3 -113 -3 -113 -47 -3 -48 -3 0 37 c0 25 -11 54 -31 86 -17 26 -33 48
-35 48 -1 0 -12 -20 -23 -45 l-20 -45 -75 0 -76 0 0 -145 0 -145 -65 0 -65 0
0 63 c0 51 -4 68 -20 82 -19 17 -20 31 -20 252 l0 233 -22 1 c-13 0 -59 4
-103 8 -63 6 -92 3 -135 -10 l-55 -17 -3 -206 -2 -207 -48 3 -47 3 -3 83 -3
82 -34 0 c-34 0 -35 -1 -35 -40 0 -39 -1 -40 -35 -40 l-35 0 0 90 0 90 -30 0
c-28 0 -30 3 -30 35 l0 35 -69 0 c-66 0 -70 1 -95 33 -60 75 -81 82 -138 50
-55 -32 -68 -83 -68 -259 l0 -154 -35 0 -35 0 0 -55 0 -55 -55 0 -55 0 0 80
c0 61 -5 90 -20 120 -18 36 -23 39 -76 46 -82 10 -88 1 -92 -141 -4 -108 -5
-114 -25 -117 -19 -3 -22 -10 -25 -55 -3 -49 -5 -53 -28 -53 -23 0 -24 3 -24
63 -1 80 -20 107 -79 107 -23 0 -53 -7 -66 -16 l-25 -16 0 49 c0 35 -7 58 -25
86 l-26 37 -89 0 -89 0 -10 -37 c-6 -21 -11 -57 -11 -80 0 -41 -2 -43 -29 -43
-20 0 -30 6 -34 20 -4 17 -14 20 -56 20 l-51 0 0 65 c0 54 -4 71 -27 104 -16
22 -30 40 -33 41 -3 0 -13 -24 -22 -53 -13 -38 -18 -88 -19 -173 l0 -119 -22
55 -22 55 -3 -57 -3 -58 -49 0 -50 0 0 -35 c0 -34 -1 -35 -40 -35 l-40 0 0 40
c0 38 -2 40 -30 40 -30 0 -30 1 -30 55 l0 55 -43 0 c-61 0 -87 -29 -87 -98 l0
-52 -40 0 c-38 0 -40 2 -40 30 0 27 -3 30 -29 30 -25 0 -30 -4 -33 -27 -2 -22
-9 -29 -31 -31 -22 -3 -30 1 -34 17 -4 16 -15 21 -52 23 -41 3 -46 5 -43 26 3
21 1 22 -86 22 -84 0 -90 -1 -115 -28 -22 -23 -27 -37 -27 -80 l0 -52 -40 0
-40 0 0 100 0 100 -85 0 -85 0 0 -50 0 -50 -50 0 c-43 0 -50 -3 -50 -20 0 -13
-7 -20 -20 -20 -16 0 -20 -7 -20 -30 0 -30 -1 -30 -55 -30 l-55 0 0 39 c0 48
-39 122 -52 100 -5 -8 -20 -32 -33 -54 l-24 -40 -1 58 0 57 -64 0 -65 0 -3
-47 c-3 -41 -6 -48 -25 -51 -14 -2 -23 -11 -25 -25 -3 -21 -8 -22 -115 -25
l-112 -3 -24 36 -25 36 -22 -30 c-18 -27 -28 -31 -66 -31 l-44 0 0 60 0 60
-41 0 c-35 0 -40 2 -29 15 8 9 11 48 11 112 -2 117 6 200 21 231 9 17 9 61 -1
175 -6 84 -15 164 -18 179 -4 24 -2 28 16 28 11 0 27 11 36 24 19 28 45 145
45 204 0 29 4 42 14 42 36 0 103 104 140 217 13 40 15 57 6 72 -8 17 -6 29 12
60 20 34 21 41 8 56 -12 15 -27 17 -104 12 -99 -5 -88 1 -171 -100 -25 -30
-35 -35 -57 -31 -36 8 -81 81 -97 155 -16 77 -61 143 -121 181 -27 17 -52 40
-56 50 -11 37 -20 245 -10 255 2 2 43 7 92 10 98 8 80 20 -32 22 -58 1 -62 3
-68 27 -4 15 -6 27 -4 29 2 1 39 21 83 44 91 47 89 50 -14 19 -76 -22 -102
-19 -109 15 -2 9 14 42 36 74 61 91 59 92 -15 20 -63 -62 -72 -67 -95 -58 -22
8 -27 19 -37 74 -6 35 -11 73 -11 85 0 12 -4 22 -10 22 -6 0 -10 -33 -10 -80
l0 -80 -35 -17 -35 -17 -53 50 c-93 89 -102 91 -41 9 60 -79 60 -80 45 -108
-15 -27 -19 -27 -86 -25 l-70 3 -17 100 c-9 55 -24 128 -32 162 -9 35 -16 105
-16 161 0 54 -5 114 -11 131 -11 31 -9 35 25 70 47 48 49 91 5 151 -18 25 -29
50 -26 61 3 11 1 19 -4 19 -5 0 -9 7 -9 15 0 8 -5 15 -11 15 -6 0 -9 7 -5 15
6 17 -2 19 -24 6z m245 -971 c13 -21 -6 -50 -33 -50 -21 0 -30 7 -39 30 l-11
30 38 0 c21 0 42 -5 45 -10z m4 -99 c6 -10 7 -22 3 -25 -4 -4 1 -12 11 -17 20
-12 23 -39 3 -39 -24 0 -76 53 -76 77 0 18 6 23 25 23 13 0 29 -8 34 -19z"/>
</g>
</svg>
